<svg width="32" height="32" viewBox="0 0 32 32" fill="none" xmlns="http://www.w3.org/2000/svg">
  <!-- Laptop base -->
  <path d="M 2 25 L 30 25 C 30.5 25 31 25.5 31 26 L 31 28 C 31 28.5 30.5 29 30 29 L 2 29 C 1.5 29 1 28.5 1 28 L 1 26 C 1 25.5 1.5 25 2 25 Z" fill="#1a4d1a"/>
  
  <!-- Laptop screen frame -->
  <rect x="4" y="12" width="24" height="13" rx="1" fill="#1a4d1a"/>
  
  <!-- Screen white border -->
  <rect x="5" y="13" width="22" height="11" rx="0.5" fill="#fff"/>
  
  <!-- Screen inner green -->
  <rect x="6" y="14" width="20" height="9" fill="#236323"/>
  
  <!-- Keyboard area -->
  <rect x="12.5" y="25.5" width="7" height="2" rx="0.5" fill="#fff"/>
  
  <!-- Tree trunk -->
  <rect x="15.5" y="3" width="1" height="20" fill="#fff"/>
  
  <!-- Top leaf (right) -->
  <ellipse cx="18.5" cy="5" rx="2.2" ry="3.2" fill="#1a4d1a" transform="rotate(25 18.5 5)"/>
  
  <!-- Second leaf (left) -->
  <ellipse cx="13.5" cy="8" rx="2.5" ry="3.5" fill="#236323" transform="rotate(-25 13.5 8)"/>
  
  <!-- Third leaf (left, on screen) -->
  <ellipse cx="13" cy="13" rx="1.8" ry="2.5" fill="#1a4d1a" transform="rotate(-30 13 13)"/>
  
  <!-- Fourth leaf (right, on screen) with outline -->
  <ellipse cx="19" cy="17" rx="2.2" ry="2.8" fill="#236323" transform="rotate(30 19 17)"/>
  <ellipse cx="19" cy="17" rx="1.5" ry="2" fill="none" stroke="#fff" stroke-width="0.4" transform="rotate(30 19 17)"/>
  
  <!-- Root arc -->
  <path d="M 11.5 22 Q 16 24 20.5 22" stroke="#fff" stroke-width="1" fill="none" stroke-linecap="round"/>
  <ellipse cx="16" cy="23" rx="3.5" ry="1.8" fill="none" stroke="#fff" stroke-width="0.8"/>
</svg>
